HIERARCHY
ROOT Hip
{
	OFFSET 0 1.131 0.0052
	CHANNELS 6 Xposition Yposition Zposition Xrotation Yrotation Zrotation
	JOINT Abdomen
	{
		OFFSET 0 -0.047353 -0.05
		CHANNELS 3 Xrotation Zrotation Yrotation
		JOINT Chest
		{
			OFFSET 0 0.132153 0.007439
			CHANNELS 3 Xrotation Zrotation Yrotation
			JOINT Neck
			{
				OFFSET 0 0.3078 0.006161
				CHANNELS 3 Xrotation Zrotation Yrotation
				JOINT Head_comp
				{
					OFFSET 0 0.0884 0.013
					CHANNELS 3 Xrotation Yrotation Zrotation
					End Site
					{
						OFFSET -0 0.156 0.0624
					}
				}
			}
			JOINT Left_Collar
			{
				OFFSET 0.02282 0.250342 0.017193
				CHANNELS 2 Yrotation Zrotation
				JOINT Left_Shoulder
				{
					OFFSET 0.15421 0 0
					CHANNELS 3 Xrotation Yrotation Zrotation
					JOINT Left_Forearm
					{
						OFFSET 0.265212 0 0
						CHANNELS 2 Yrotation Xrotation
						JOINT Left_Hand
						{
							OFFSET 0.27571 0 0
							CHANNELS 2 Zrotation Yrotation
							JOINT L1ProxPhalanx
							{
								OFFSET 0.014142 0.001733 0.014142
								CHANNELS 3 Yrotation Zrotation Xrotation
								JOINT L1MidPhalanx
								{
									OFFSET 0.04 0 0
									CHANNELS 1 Zrotation
									JOINT L1DistPhalanx
									{
										OFFSET 0.035 0 0
										CHANNELS 1 Zrotation
										End Site
										{
											OFFSET 0.029 -0 -0
										}
									}
								}
							}
							JOINT L2ProxPhalanx
							{
								OFFSET 0.0821037 0.001578 0.0219996
								CHANNELS 2 Yrotation Zrotation
								JOINT L2MidPhalanx
								{
									OFFSET 0.04 0 0
									CHANNELS 1 Zrotation
									JOINT L2DistPhalanx
									{
										OFFSET 0.028 0 0
										CHANNELS 1 Zrotation
										End Site
										{
											OFFSET 0.02 -0 -0
										}
									}
								}
							}
							JOINT L3ProxPhalanx
							{
								OFFSET 0.083 0 0
								CHANNELS 2 Yrotation Zrotation
								JOINT L3MidPhalanx
								{
									OFFSET 0.053 0 0
									CHANNELS 1 Zrotation
									JOINT L3DistPhalanx
									{
										OFFSET 0.03 0 0
										CHANNELS 1 Zrotation
										End Site
										{
											OFFSET 0.023 -0 -0
										}
									}
								}
							}
							JOINT L4ProxPhalanx
							{
								OFFSET 0.077274 -0.000761 -0.0207055
								CHANNELS 2 Yrotation Zrotation
								JOINT L4MidPhalanx
								{
									OFFSET 0.05 0 0
									CHANNELS 1 Zrotation
									JOINT L4DistPhalanx
									{
										OFFSET 0.03 0 0
										CHANNELS 1 Zrotation
										End Site
										{
											OFFSET 0.023 -0 -0
										}
									}
								}
							}
							JOINT L5ProxPhalanx
							{
								OFFSET 0.0675499 -0.001644 -0.039
								CHANNELS 2 Yrotation Zrotation
								JOINT L5MidPhalanx
								{
									OFFSET 0.04 0 0
									CHANNELS 1 Zrotation
									JOINT L5DistPhalanx
									{
										OFFSET 0.021 0 0
										CHANNELS 1 Zrotation
										End Site
										{
											OFFSET 0.022 -0 -0
										}
									}
								}
							}
						}
					}
				}
			}
			JOINT Right_Collar
			{
				OFFSET -0.02282 0.250342 0.017193
				CHANNELS 2 Yrotation Zrotation
				JOINT Right_Shoulder
				{
					OFFSET -0.15421 0 0
					CHANNELS 3 Xrotation Yrotation Zrotation
					JOINT Right_Forearm
					{
						OFFSET -0.265212 0 0
						CHANNELS 2 Yrotation Xrotation
						JOINT Right_Hand
						{
							OFFSET -0.27571 3e-006 0
							CHANNELS 2 Zrotation Yrotation
							JOINT R1ProxPhalanx
							{
								OFFSET -0.014142 0.001733 0.014142
								CHANNELS 3 Yrotation Zrotation Xrotation
								JOINT R1MidPhalanx
								{
									OFFSET -0.04 0 0
									CHANNELS 1 Zrotation
									JOINT R1DistPhalanx
									{
										OFFSET -0.035 0 0
										CHANNELS 1 Zrotation
										End Site
										{
											OFFSET -0.029 -0 -0
										}
									}
								}
							}
							JOINT R2ProxPhalanx
							{
								OFFSET -0.0821037 0.001578 0.0219996
								CHANNELS 2 Yrotation Zrotation
								JOINT R2MidPhalanx
								{
									OFFSET -0.04 0 0
									CHANNELS 1 Zrotation
									JOINT R2DistPhalanx
									{
										OFFSET -0.028 0 0
										CHANNELS 1 Zrotation
										End Site
										{
											OFFSET -0.02 -0 -0
										}
									}
								}
							}
							JOINT R3ProxPhalanx
							{
								OFFSET -0.083 0 0
								CHANNELS 2 Yrotation Zrotation
								JOINT R3MidPhalanx
								{
									OFFSET -0.053 0 0
									CHANNELS 1 Zrotation
									JOINT R3DistPhalanx
									{
										OFFSET -0.03 0 0
										CHANNELS 1 Zrotation
										End Site
										{
											OFFSET -0.023 -0 -0
										}
									}
								}
							}
							JOINT R4ProxPhalanx
							{
								OFFSET -0.077274 -0.000761 -0.0207055
								CHANNELS 2 Yrotation Zrotation
								JOINT R4MidPhalanx
								{
									OFFSET -0.05 0 0
									CHANNELS 1 Zrotation
									JOINT R4DistPhalanx
									{
										OFFSET -0.03 0 0
										CHANNELS 1 Zrotation
										End Site
										{
											OFFSET -0.023 -0 -0
										}
									}
								}
							}
							JOINT R5ProxPhalanx
							{
								OFFSET -0.0675499 -0.001644 -0.039
								CHANNELS 2 Yrotation Zrotation
								JOINT R5MidPhalanx
								{
									OFFSET -0.04 0 0
									CHANNELS 1 Zrotation
									JOINT R5DistPhalanx
									{
										OFFSET -0.021 0 0
										CHANNELS 1 Zrotation
										End Site
										{
											OFFSET -0.022 -0 -0
										}
									}
								}
							}
						}
					}
				}
			}
		}
	}
	JOINT Left_Thigh
	{
		OFFSET 0.1118 -0.1612 -0.0442
		CHANNELS 3 Xrotation Zrotation Yrotation
		JOINT Left_Shin
		{
			OFFSET 0 -0.477856 0
			CHANNELS 1 Xrotation
			JOINT Left_Foot
			{
				OFFSET 0 -0.431952 0
				CHANNELS 2 Xrotation Zrotation
				JOINT Left_Toe
				{
					OFFSET 0 -0.0442 0.119
					CHANNELS 1 Xrotation
					End Site
					{
						OFFSET -0 -0 0.07
					}
				}
			}
		}
	}
	JOINT Right_Thigh
	{
		OFFSET -0.1118 -0.1612 -0.0442
		CHANNELS 3 Xrotation Zrotation Yrotation
		JOINT Right_Shin
		{
			OFFSET 0 -0.477856 0
			CHANNELS 1 Xrotation
			JOINT Right_Foot
			{
				OFFSET 0 -0.431952 0
				CHANNELS 2 Xrotation Zrotation
				JOINT Right_Toe
				{
					OFFSET 0 -0.0442 0.119
					CHANNELS 1 Xrotation
					End Site
					{
						OFFSET -0 -0 0.07
					}
				}
			}
		}
	}
}
MOTION
Frames: 6
Frame Time: 0.009975
-0.103853 -0.0600271 0.0398521 1.01044e-011 5.06094e-009 -5.10952e-006 0 -0 0 0 -0 0 0 -0 0 -0.71194 0.298043 6.50351e-013 -1.37006 -23.0306 -13.2315 -24.9997 -27.3308 -38.7399 13.9259 12.2344 -6.6977 2.69588 -69.4733 147.023 -7.45011 0.650765 2.99439 -34.6773 -5.56353 -9.13931 -0.114649 -1.35527 -3.42801 -4.12002 -2.27997 2.19649 -11.2155 -2.08402 4.28779 5.07749 -48.6964 31.3259 0.367774 23.7015 -13.5981 22.7525 40.4382 46.1067 7.88185 -44.5703 -2.64773 45.1335 60.8454 105.728 7.38174 2.76608 -9.48013 8.68228 23.0971 18.8275 -12.1305 -0.0994191 1.40661 1.30315 -8.86813 -1.79838 13.2162 -11.37 -5.43131 -5.02406 77.1812 -58.7201 0.0422612 -0.500478 -0.000369151 0.0240216 -0.0662812 0.500483 0 0.0536656 -0.500478 -0.000468765 2.83165e-006 -0.0536662 0.500483 0 
-0.103864 -0.0600269 0.0397472 -9.53686e-012 4.50802e-009 -5.10952e-006 0 -0 0 0 -0 0 0 -0 0 -0.711932 0.298086 9.72124e-013 -1.37006 -23.0306 -13.2315 -24.9997 -27.3308 -38.7399 13.9259 12.2344 -6.6977 2.69588 -69.4733 147.023 -7.45011 0.650765 2.99439 -34.6773 -5.56353 -9.13931 -0.114649 -1.35527 -3.42801 -4.12002 -2.27997 2.19649 -11.2155 -2.08402 4.28779 5.07749 -48.6964 31.3259 0.55142 23.6912 -14.3071 22.6582 40.756 45.3078 7.97071 -45.0284 -2.37718 44.7775 61.0216 106.132 7.45672 2.70926 -9.39012 7.67857 24.7679 20.6734 -12.0518 -0.155235 1.10265 1.29405 -8.4097 -1.8087 12.7631 -10.9543 -5.09658 -5.02821 76.7177 -58.4872 0.0356545 -0.499787 -0.000311034 0.0240216 -0.0596747 0.499792 0 0.0470597 -0.499787 -0.000410521 2.41484e-006 -0.04706 0.499792 0 
-0.103877 -0.0600267 0.0396392 9.76149e-012 3.87907e-009 -5.10951e-006 0 -0 0 0 -0 0 0 -0 0 -0.711923 0.298112 2.01944e-014 -1.37006 -23.0306 -13.2315 -24.9997 -27.3308 -38.7399 13.9259 12.2344 -6.6977 2.69588 -69.4733 147.023 -7.45011 0.650765 2.99439 -34.6773 -5.56353 -9.13931 -0.114649 -1.35527 -3.42801 -4.12002 -2.27997 2.19649 -11.2155 -2.08402 4.28779 5.07749 -48.6964 31.3259 0.746745 23.6719 -14.9892 22.58 41.0655 44.582 8.01023 -45.4861 -2.25331 44.5471 61.1821 106.696 7.4538 2.58264 -9.19051 6.82445 26.6895 21.9113 -11.8865 -0.2071 0.892891 1.15939 -7.83286 -1.81085 12.2957 -10.5006 -4.64696 -5.01402 76.0645 -57.9275 0.0288482 -0.498956 -0.000251225 0.0240216 -0.0528687 0.498961 0 0.0402534 -0.498955 -0.000350548 8.6658e-007 -0.0402528 0.498961 0 
-0.103882 -0.0600266 0.0395392 3.73513e-011 3.29156e-009 -5.10952e-006 0 -0 0 0 -0 0 0 -0 0 -0.711916 0.298127 4.67853e-013 -1.37006 -23.0306 -13.2315 -24.9997 -27.3308 -38.7399 13.9259 12.2344 -6.6977 2.69588 -69.4733 147.023 -7.45011 0.650765 2.99439 -34.6773 -5.56353 -9.13931 -0.114649 -1.35527 -3.42801 -4.12002 -2.27997 2.19649 -11.2155 -2.08402 4.28779 5.07749 -48.6964 31.3259 0.912072 23.6286 -15.6933 22.4785 41.3875 43.9281 8.02656 -45.7739 -2.26115 44.6418 61.2197 107.012 7.51886 2.24607 -8.96005 5.95086 28.6814 22.9919 -11.7179 -0.270335 0.859714 0.969148 -7.25779 -1.82655 11.9934 -10.303 -4.14488 -5.00717 75.3846 -57.3802 0.0225556 -0.498635 -0.000196304 0.0240216 -0.0465764 0.49864 0 0.0339608 -0.498635 -0.00029556 8.36698e-007 -0.0339604 0.49864 0 
-0.103889 -0.0600265 0.0394491 -1.01081e-011 2.52244e-009 -5.10952e-006 0 -0 0 0 -0 0 0 -0 0 -0.711909 0.298142 2.10373e-014 -1.37006 -23.0306 -13.2315 -24.9997 -27.3308 -38.7399 13.9259 12.2344 -6.6977 2.69588 -69.4733 147.023 -7.45011 0.650765 2.99439 -34.6773 -5.56353 -9.13931 -0.114649 -1.35527 -3.42801 -4.12002 -2.27997 2.19649 -11.2155 -2.08402 4.28779 5.07749 -48.6964 31.3259 1.05313 23.6038 -16.3888 22.3526 41.71 43.3004 8.03396 -45.9059 -2.31092 44.8464 61.1943 107.414 7.61835 2.09689 -8.79355 5.13646 30.4358 23.9756 -11.5702 -0.328366 0.714296 0.880806 -6.81889 -1.85856 11.7591 -10.0634 -3.79137 -5.01402 74.9102 -57.5776 0.0168802 -0.498209 -0.000146785 0.0240216 -0.0409012 0.498214 0 0.0282854 -0.498209 -0.000245955 1.70755e-006 -0.0282861 0.498214 0 
-0.103898 -0.0600264 0.039366 2.09381e-011 2.05566e-009 -5.10952e-006 0 -0 0 0 -0 0 0 -0 0 -0.711902 0.298166 7.04139e-013 -1.37006 -23.0306 -13.2315 -24.9997 -27.3308 -38.7399 13.9259 12.2344 -6.6977 2.69588 -69.4733 147.023 -7.45011 0.650765 2.99439 -34.6773 -5.56353 -9.13931 -0.114649 -1.35527 -3.42801 -4.12002 -2.27997 2.19649 -11.2155 -2.08402 4.28779 5.07749 -48.6964 31.3259 1.17663 23.6025 -17.0805 22.2168 42.0224 42.6715 8.05388 -45.9742 -2.27892 44.8513 61.1592 107.895 7.50173 2.2156 -8.84315 4.50234 31.7528 24.986 -11.6127 -0.380415 0.635747 0.944296 -6.66458 -1.90485 11.7726 -10.0563 -3.67032 -5.04901 74.8629 -57.9031 0.011646 -0.497643 -0.00010116 0.0240216 -0.0356672 0.497648 0 0.0230512 -0.497642 -0.000200217 1.70755e-006 -0.0230524 0.497648 0 
